<?xml version="1.0" encoding="UTF-8"?>
<svg xmlns="http://www.w3.org/2000/svg" width="1600" height="1120" viewBox="0 0 1600 1120" role="img" aria-labelledby="title desc">
  <title id="title">Task Autopilot 18 个规格实施进度总览 2026-04-26</title>
  <desc id="desc">基于 .kiro/specs 下 18 个 task-autopilot 相关 specs 的真实 tasks.md 勾选数与当前设计收口状态生成。当前规格文档 18 / 18，Markdown 54 / 54；核心执行项按 tasks.md 顶层任务行重算为 345 / 345；当前 raw tasks 已重算到 602 / 602。本轮继续按 6 条 lane 并发推进，destination-model-and-parser 已收口到 14 / 14，P0 / P1 / P2 分组口径现为 141 / 141、189 / 189、272 / 272；shared parser 合同、server projection、client store 与 TaskAutopilotPanel 消费链均已有聚焦测试直证，版式风格维持不变。</desc>
  <defs>
    <linearGradient id="bg" x1="0" y1="0" x2="0" y2="1">
      <stop offset="0%" stop-color="#f6f8fc"/>
      <stop offset="100%" stop-color="#eef3f8"/>
    </linearGradient>
    <linearGradient id="hero" x1="0" y1="0" x2="1" y2="1">
      <stop offset="0%" stop-color="#16233f"/>
      <stop offset="55%" stop-color="#243f84"/>
      <stop offset="100%" stop-color="#0f8f87"/>
    </linearGradient>
    <linearGradient id="heroBar" x1="0" y1="0" x2="1" y2="0">
      <stop offset="0%" stop-color="#8fd3ff"/>
      <stop offset="100%" stop-color="#7ce3cb"/>
    </linearGradient>
    <linearGradient id="progressFill" x1="0" y1="0" x2="1" y2="0">
      <stop offset="0%" stop-color="#27c281"/>
      <stop offset="100%" stop-color="#169b67"/>
    </linearGradient>
    <filter id="shadow" x="-20%" y="-20%" width="140%" height="140%">
      <feDropShadow dx="0" dy="14" stdDeviation="18" flood-color="#0f172a" flood-opacity="0.10"/>
    </filter>
    <style>
      .title { font: 700 33px "Segoe UI", "PingFang SC", "Microsoft YaHei", sans-serif; fill: #ffffff; }
      .subtitle { font: 500 15px "Segoe UI", "PingFang SC", "Microsoft YaHei", sans-serif; fill: rgba(255,255,255,0.86); }
      .hero-k { font: 600 12px "Segoe UI", "PingFang SC", "Microsoft YaHei", sans-serif; fill: rgba(255,255,255,0.72); }
      .hero-v { font: 700 30px "Segoe UI", "PingFang SC", "Microsoft YaHei", sans-serif; fill: #ffffff; }
      .card-title { font: 700 15px "Segoe UI", "PingFang SC", "Microsoft YaHei", sans-serif; fill: #0f172a; }
      .card-value { font: 700 20px "Segoe UI", "PingFang SC", "Microsoft YaHei", sans-serif; fill: #0f172a; }
      .card-meta { font: 500 12px "Segoe UI", "PingFang SC", "Microsoft YaHei", sans-serif; fill: #64748b; }
      .section-title { font: 700 18px "Segoe UI", "PingFang SC", "Microsoft YaHei", sans-serif; fill: #0f172a; }
      .section-meta { font: 500 12px "Segoe UI", "PingFang SC", "Microsoft YaHei", sans-serif; fill: #64748b; }
      .spec-title { font: 700 14px "Segoe UI", "PingFang SC", "Microsoft YaHei", sans-serif; fill: #0f172a; }
      .spec-slug { font: 500 10px "Segoe UI", "PingFang SC", "Microsoft YaHei", sans-serif; fill: #64748b; }
      .spec-task { font: 500 11px "Segoe UI", "PingFang SC", "Microsoft YaHei", sans-serif; fill: #475569; }
      .spec-badge { font: 700 10px "Segoe UI", "PingFang SC", "Microsoft YaHei", sans-serif; fill: #15996a; }
      .legend { font: 500 11px "Segoe UI", "PingFang SC", "Microsoft YaHei", sans-serif; fill: #64748b; }
      .foot { font: 500 12px "Segoe UI", "PingFang SC", "Microsoft YaHei", sans-serif; fill: #64748b; }
    </style>
  </defs>

  <rect x="0" y="0" width="1600" height="1120" fill="url(#bg)"/>

  <rect x="36" y="28" width="1528" height="194" rx="28" fill="url(#hero)" filter="url(#shadow)"/>
  <text x="60" y="78" class="title">Task Autopilot 18 个规格实施进度总览</text>
  <text x="60" y="108" class="subtitle">统计时间：2026-04-26 | 统计口径：读取 `.kiro/specs` 下 18 个 task-autopilot 相关目录的 `tasks.md` 勾选项</text>
  <text x="60" y="138" class="subtitle">当前状态：shared / server / client 的 autopilot 投影链路继续维持代码侧最小闭环；destination parser 最小合同已补齐 subGoals、constraints、successCriteria、missingInfo 与 clarification 直证，raw tasks 更新为 602 / 602</text>
  <text x="60" y="176" class="subtitle">口径提醒：核心执行项按 18 个 specs 的顶层任务行统计，当前为 345 / 345；下方分组与单卡按各 specs 当前 tasks.md 原始勾选项展示。当前 raw tasks 为 602 / 602；destination-model 已收口到 14 / 14，P0 / P1 / P2 分别为 141 / 141、189 / 189 与 272 / 272。</text>

  <rect x="954" y="46" width="142" height="66" rx="18" fill="rgba(255,255,255,0.11)" stroke="rgba(255,255,255,0.18)"/>
  <text x="972" y="71" class="hero-k">规格文档</text>
  <text x="972" y="101" class="hero-v">18 / 18</text>

  <rect x="1114" y="46" width="142" height="66" rx="18" fill="rgba(255,255,255,0.11)" stroke="rgba(255,255,255,0.18)"/>
  <text x="1132" y="71" class="hero-k">Markdown</text>
  <text x="1132" y="101" class="hero-v">54 / 54</text>

  <rect x="1274" y="46" width="220" height="66" rx="18" fill="rgba(255,255,255,0.11)" stroke="rgba(255,255,255,0.18)"/>
  <text x="1292" y="71" class="hero-k">核心执行项</text>
  <text x="1292" y="101" class="hero-v">345 / 345</text>

  <rect x="954" y="138" width="540" height="10" rx="5" fill="rgba(255,255,255,0.18)"/>
  <rect x="954" y="138" width="540" height="10" rx="5" fill="url(#heroBar)"/>
  <text x="954" y="174" class="subtitle">整体核心执行项完成率 100% | 顶层任务行 345 / 345，raw tasks 当前 602 / 602；shared parser summary、server projection / orchestration、tasks-store runtime 对齐与 TaskAutopilotPanel 消费面继续稳定</text>

  <rect x="36" y="244" width="360" height="112" rx="22" fill="#ffffff" stroke="#dbe5f1" filter="url(#shadow)"/>
  <text x="58" y="278" class="card-title">SPEC 文档编排</text>
  <text x="58" y="316" class="card-value">18 / 18</text>
  <text x="58" y="340" class="card-meta">requirements / design / tasks 均已创建</text>

  <rect x="416" y="244" width="360" height="112" rx="22" fill="#ffffff" stroke="#dbe5f1" filter="url(#shadow)"/>
  <text x="438" y="278" class="card-title">文档文件</text>
  <text x="438" y="316" class="card-value">54 / 54</text>
  <text x="438" y="340" class="card-meta">18 个目录，每个 3 份 markdown</text>

  <rect x="796" y="244" width="360" height="112" rx="22" fill="#ffffff" stroke="#dbe5f1" filter="url(#shadow)"/>
  <text x="818" y="278" class="card-title">核心执行项完成</text>
  <text x="818" y="316" class="card-value">345 / 345</text>
  <text x="818" y="340" class="card-meta">按 18 个 specs 的顶层任务行统计；下方单卡显示 raw tasks.md 勾选明细</text>

  <rect x="1176" y="244" width="388" height="112" rx="22" fill="#ffffff" stroke="#dbe5f1" filter="url(#shadow)"/>
  <text x="1198" y="278" class="card-title">推进方式</text>
  <text x="1198" y="316" class="card-value">6 lane 并行</text>
  <text x="1198" y="340" class="card-meta">先 P0 语义与映射，再 P1 交互，再 P2 治理与证据闭环</text>

  <circle cx="1298" cy="390" r="6" fill="#27c281"/>
  <text x="1312" y="394" class="legend">文档就绪</text>
  <circle cx="1392" cy="390" r="6" fill="#94a3b8"/>
  <text x="1406" y="394" class="legend">原始勾选追踪</text>
  <circle cx="1498" cy="390" r="6" fill="#f59e0b"/>
  <text x="1512" y="394" class="legend">待继续推进</text>

  <text x="44" y="424" class="section-title">P0 核心语义与投影基础</text>
  <text x="330" y="424" class="section-meta">6 个 specs | 原始 tasks 已勾选 141 / 141 | 当前 100%</text>

  <rect x="36" y="442" width="240" height="108" rx="18" fill="#ffffff" stroke="#cfdceb"/>
  <rect x="52" y="454" width="52" height="18" rx="9" fill="#e8fbf2"/><text x="65" y="467" class="spec-badge">文档就绪</text>
  <text x="244" y="470" text-anchor="end" class="card-value" style="font-size:18px;">100%</text>
  <text x="52" y="500" class="spec-title">平台定位</text>
  <text x="52" y="520" class="spec-slug">task-autopilot-platform-positioning</text>
  <text x="52" y="540" class="spec-task">已勾选 8 / 8</text>
  <rect x="52" y="534" width="188" height="6" rx="3" fill="#e5ebf3"/><rect x="52" y="534" width="188" height="6" rx="3" fill="url(#progressFill)"/>

  <rect x="290" y="442" width="240" height="108" rx="18" fill="#ffffff" stroke="#cfdceb"/>
  <rect x="306" y="454" width="52" height="18" rx="9" fill="#e8fbf2"/><text x="319" y="467" class="spec-badge">文档就绪</text>
  <text x="498" y="470" text-anchor="end" class="card-value" style="font-size:18px;">100%</text>
  <text x="306" y="500" class="spec-title">核心概念</text>
  <text x="306" y="520" class="spec-slug">task-autopilot-core-concepts</text>
  <text x="306" y="540" class="spec-task">已勾选 8 / 8</text>
  <rect x="306" y="534" width="188" height="6" rx="3" fill="#e5ebf3"/><rect x="306" y="534" width="188" height="6" rx="3" fill="url(#progressFill)"/>

  <rect x="544" y="442" width="240" height="108" rx="18" fill="#ffffff" stroke="#cfdceb"/>
  <rect x="560" y="454" width="52" height="18" rx="9" fill="#e8fbf2"/><text x="573" y="467" class="spec-badge">文档就绪</text>
  <text x="752" y="470" text-anchor="end" class="card-value" style="font-size:18px;">100%</text>
  <text x="560" y="500" class="spec-title">L1-L5 分级</text>
  <text x="560" y="520" class="spec-slug">task-autopilot-levels-l1-to-l5</text>
  <text x="560" y="540" class="spec-task">已勾选 19 / 19</text>
  <rect x="560" y="534" width="188" height="6" rx="3" fill="#e5ebf3"/><rect x="560" y="534" width="188" height="6" rx="3" fill="url(#progressFill)"/>

  <rect x="798" y="442" width="240" height="108" rx="18" fill="#ffffff" stroke="#cfdceb"/>
  <rect x="814" y="454" width="52" height="18" rx="9" fill="#e8fbf2"/><text x="827" y="467" class="spec-badge">文档就绪</text>
  <text x="1006" y="470" text-anchor="end" class="card-value" style="font-size:18px;">100%</text>
  <text x="814" y="500" class="spec-title">目的地解析</text>
  <text x="814" y="520" class="spec-slug">destination-model-and-parser</text>
  <text x="814" y="540" class="spec-task">已勾选 14 / 14</text>
  <rect x="814" y="534" width="188" height="6" rx="3" fill="#e5ebf3"/><rect x="814" y="534" width="188" height="6" rx="3" fill="url(#progressFill)"/>

  <rect x="1052" y="442" width="240" height="108" rx="18" fill="#ffffff" stroke="#cfdceb"/>
  <rect x="1068" y="454" width="52" height="18" rx="9" fill="#e8fbf2"/><text x="1081" y="467" class="spec-badge">文档就绪</text>
  <text x="1260" y="470" text-anchor="end" class="card-value" style="font-size:18px;">100%</text>
  <text x="1068" y="500" class="spec-title">路线规划</text>
  <text x="1068" y="520" class="spec-slug">route-planner-and-route-model</text>
  <text x="1068" y="540" class="spec-task">已勾选 77 / 77</text>
  <rect x="1068" y="534" width="188" height="6" rx="3" fill="#e5ebf3"/><rect x="1068" y="534" width="188" height="6" rx="3" fill="url(#progressFill)"/>

  <rect x="1306" y="442" width="240" height="108" rx="18" fill="#ffffff" stroke="#cfdceb"/>
  <rect x="1322" y="454" width="52" height="18" rx="9" fill="#e8fbf2"/><text x="1335" y="467" class="spec-badge">文档就绪</text>
  <text x="1514" y="470" text-anchor="end" class="card-value" style="font-size:18px;">100%</text>
  <text x="1322" y="500" class="spec-title">Mission 映射</text>
  <text x="1322" y="520" class="spec-slug">mission-model-to-autopilot-model-mapping</text>
  <text x="1322" y="540" class="spec-task">已勾选 15 / 15</text>
  <rect x="1322" y="534" width="188" height="6" rx="3" fill="#e5ebf3"/><rect x="1322" y="534" width="188" height="6" rx="3" fill="url(#progressFill)"/>

  <text x="44" y="588" class="section-title">P1 驾驶舱与接管体验</text>
  <text x="330" y="588" class="section-meta">6 个 specs | 原始 tasks 已勾选 189 / 189 | 当前 100%</text>

  <rect x="36" y="606" width="240" height="108" rx="18" fill="#ffffff" stroke="#cfdceb"/>
  <rect x="52" y="618" width="52" height="18" rx="9" fill="#e8fbf2"/><text x="65" y="631" class="spec-badge">文档就绪</text>
  <text x="244" y="634" text-anchor="end" class="card-value" style="font-size:18px;">100%</text>
  <text x="52" y="664" class="spec-title">驾驶舱 IA</text>
  <text x="52" y="684" class="spec-slug">autopilot-cockpit-information-architecture</text>
  <text x="52" y="704" class="spec-task">已勾选 11 / 11</text>
  <rect x="52" y="698" width="188" height="6" rx="3" fill="#e5ebf3"/><rect x="52" y="698" width="188" height="6" rx="3" fill="url(#progressFill)"/>

  <rect x="290" y="606" width="240" height="108" rx="18" fill="#ffffff" stroke="#cfdceb"/>
  <rect x="306" y="618" width="52" height="18" rx="9" fill="#e8fbf2"/><text x="319" y="631" class="spec-badge">文档就绪</text>
  <text x="498" y="634" text-anchor="end" class="card-value" style="font-size:18px;">100%</text>
  <text x="306" y="664" class="spec-title">目的地卡片</text>
  <text x="306" y="684" class="spec-slug">destination-card-and-goal-summary</text>
  <text x="306" y="704" class="spec-task">已勾选 9 / 9</text>
  <rect x="306" y="698" width="188" height="6" rx="3" fill="#e5ebf3"/><rect x="306" y="698" width="188" height="6" rx="3" fill="url(#progressFill)"/>

  <rect x="544" y="606" width="240" height="108" rx="18" fill="#ffffff" stroke="#cfdceb"/>
  <rect x="560" y="618" width="52" height="18" rx="9" fill="#e8fbf2"/><text x="573" y="631" class="spec-badge">文档就绪</text>
  <text x="752" y="634" text-anchor="end" class="card-value" style="font-size:18px;">100%</text>
  <text x="560" y="664" class="spec-title">路线推荐</text>
  <text x="560" y="684" class="spec-slug">route-recommendation-and-selection</text>
  <text x="560" y="704" class="spec-task">已勾选 20 / 20</text>
  <rect x="560" y="698" width="188" height="6" rx="3" fill="#e5ebf3"/><rect x="560" y="698" width="188" height="6" rx="3" fill="url(#progressFill)"/>

  <rect x="798" y="606" width="240" height="108" rx="18" fill="#ffffff" stroke="#cfdceb"/>
  <rect x="814" y="618" width="52" height="18" rx="9" fill="#e8fbf2"/><text x="827" y="631" class="spec-badge">文档就绪</text>
  <text x="1006" y="634" text-anchor="end" class="card-value" style="font-size:18px;">100%</text>
  <text x="814" y="664" class="spec-title">车队执行视图</text>
  <text x="814" y="684" class="spec-slug">fleet-status-and-live-execution-view</text>
  <text x="814" y="704" class="spec-task">已勾选 14 / 14</text>
  <rect x="814" y="698" width="188" height="6" rx="3" fill="#e5ebf3"/><rect x="814" y="698" width="188" height="6" rx="3" fill="url(#progressFill)"/>

  <rect x="1052" y="606" width="240" height="108" rx="18" fill="#ffffff" stroke="#cfdceb"/>
  <rect x="1068" y="618" width="52" height="18" rx="9" fill="#e8fbf2"/><text x="1081" y="631" class="spec-badge">文档就绪</text>
  <text x="1260" y="634" text-anchor="end" class="card-value" style="font-size:18px;">100%</text>
  <text x="1068" y="664" class="spec-title">接管面板</text>
  <text x="1068" y="684" class="spec-slug">takeover-panel-and-decision-points</text>
  <text x="1068" y="704" class="spec-task">已勾选 120 / 120</text>
  <rect x="1068" y="698" width="188" height="6" rx="3" fill="#e5ebf3"/><rect x="1068" y="698" width="188" height="6" rx="3" fill="url(#progressFill)"/>

  <rect x="1306" y="606" width="240" height="108" rx="18" fill="#ffffff" stroke="#cfdceb"/>
  <rect x="1322" y="618" width="52" height="18" rx="9" fill="#e8fbf2"/><text x="1335" y="631" class="spec-badge">文档就绪</text>
  <text x="1514" y="634" text-anchor="end" class="card-value" style="font-size:18px;">100%</text>
  <text x="1322" y="664" class="spec-title">驾驶状态机</text>
  <text x="1322" y="684" class="spec-slug">drive-state-and-replan-state-machine</text>
  <text x="1322" y="704" class="spec-task">已勾选 15 / 15</text>
  <rect x="1322" y="698" width="188" height="6" rx="3" fill="#e5ebf3"/><rect x="1322" y="698" width="188" height="6" rx="3" fill="url(#progressFill)"/>

  <text x="44" y="752" class="section-title">P2 Runtime、治理与指标闭环</text>
  <text x="384" y="752" class="section-meta">6 个 specs | 原始 tasks 已勾选 272 / 272 | 当前 100%</text>

  <rect x="36" y="770" width="240" height="108" rx="18" fill="#ffffff" stroke="#cfdceb"/>
  <rect x="52" y="782" width="52" height="18" rx="9" fill="#e8fbf2"/><text x="65" y="795" class="spec-badge">文档就绪</text>
  <text x="244" y="798" text-anchor="end" class="card-value" style="font-size:18px;">100%</text>
  <text x="52" y="828" class="spec-title">车队组织</text>
  <text x="52" y="848" class="spec-slug">fleet-organization-and-role-packaging</text>
  <text x="52" y="868" class="spec-task">已勾选 31 / 31</text>
  <rect x="52" y="862" width="188" height="6" rx="3" fill="#e5ebf3"/><rect x="52" y="862" width="188" height="6" rx="3" fill="url(#progressFill)"/>

  <rect x="290" y="770" width="240" height="108" rx="18" fill="#ffffff" stroke="#cfdceb"/>
  <rect x="306" y="782" width="52" height="18" rx="9" fill="#e8fbf2"/><text x="319" y="795" class="spec-badge">文档就绪</text>
  <text x="498" y="798" text-anchor="end" class="card-value" style="font-size:18px;">100%</text>
  <text x="306" y="828" class="spec-title">Runtime 编排</text>
  <text x="306" y="848" class="spec-slug">autopilot-runtime-orchestration</text>
  <text x="306" y="868" class="spec-task">已勾选 37 / 37</text>
  <rect x="306" y="862" width="188" height="6" rx="3" fill="#e5ebf3"/><rect x="306" y="862" width="188" height="6" rx="3" fill="url(#progressFill)"/>

  <rect x="544" y="770" width="240" height="108" rx="18" fill="#ffffff" stroke="#cfdceb"/>
  <rect x="560" y="782" width="52" height="18" rx="9" fill="#e8fbf2"/><text x="573" y="795" class="spec-badge">文档就绪</text>
  <text x="752" y="798" text-anchor="end" class="card-value" style="font-size:18px;">100%</text>
  <text x="560" y="828" class="spec-title">解释与遥测</text>
  <text x="560" y="848" class="spec-slug">autopilot-explainability-and-telemetry</text>
  <text x="560" y="868" class="spec-task">已勾选 23 / 23</text>
  <rect x="560" y="862" width="188" height="6" rx="3" fill="#e5ebf3"/><rect x="560" y="862" width="188" height="6" rx="3" fill="url(#progressFill)"/>

  <rect x="798" y="770" width="240" height="108" rx="18" fill="#ffffff" stroke="#cfdceb"/>
  <rect x="814" y="782" width="52" height="18" rx="9" fill="#e8fbf2"/><text x="827" y="795" class="spec-badge">文档就绪</text>
  <text x="1006" y="798" text-anchor="end" class="card-value" style="font-size:18px;">100%</text>
  <text x="814" y="828" class="spec-title">恢复与接管治理</text>
  <text x="814" y="848" class="spec-slug">autopilot-recovery-and-human-takeover-governance</text>
  <text x="814" y="868" class="spec-task">已勾选 103 / 103</text>
  <rect x="814" y="862" width="188" height="6" rx="3" fill="#e5ebf3"/><rect x="814" y="862" width="188" height="6" rx="3" fill="url(#progressFill)"/>

  <rect x="1052" y="770" width="240" height="108" rx="18" fill="#ffffff" stroke="#cfdceb"/>
  <rect x="1068" y="782" width="52" height="18" rx="9" fill="#e8fbf2"/><text x="1081" y="795" class="spec-badge">文档就绪</text>
  <text x="1260" y="798" text-anchor="end" class="card-value" style="font-size:18px;">100%</text>
  <text x="1068" y="828" class="spec-title">证据回放</text>
  <text x="1068" y="848" class="spec-slug">autopilot-evidence-replay-and-trust-chain</text>
  <text x="1068" y="868" class="spec-task">已勾选 20 / 20</text>
  <rect x="1068" y="862" width="188" height="6" rx="3" fill="#e5ebf3"/><rect x="1068" y="862" width="188" height="6" rx="3" fill="url(#progressFill)"/>

  <rect x="1306" y="770" width="240" height="108" rx="18" fill="#ffffff" stroke="#cfdceb"/>
  <rect x="1322" y="782" width="52" height="18" rx="9" fill="#e8fbf2"/><text x="1335" y="795" class="spec-badge">文档就绪</text>
  <text x="1514" y="798" text-anchor="end" class="card-value" style="font-size:18px;">100%</text>
  <text x="1322" y="828" class="spec-title">成功指标</text>
  <text x="1322" y="848" class="spec-slug">task-autopilot-success-metrics</text>
  <text x="1322" y="868" class="spec-task">已勾选 58 / 58</text>
  <rect x="1322" y="862" width="188" height="6" rx="3" fill="#e5ebf3"/><rect x="1322" y="862" width="188" height="6" rx="3" fill="url(#progressFill)"/>

  <rect x="36" y="920" width="1528" height="58" rx="18" fill="#ffffff" stroke="#dbe5f1"/>
  <text x="60" y="955" class="foot">下一步建议：18 个 task-autopilot specs 的顶层任务行与 raw tasks 均已全满，后续可转向真实 runtime 深水区，包括 parser 版本化、clarification merge、route planner 自动编队与回放治理。</text>

  <rect x="36" y="994" width="1528" height="90" rx="18" fill="#ffffff" stroke="#dbe5f1"/>
  <text x="60" y="1026" class="foot">当前观察：shared `parseMissionDestination()`、mission autopilot summary、server projection、tasks-store alias / fallback normalize、TaskAutopilotPanel 的 destination subGoals / constraints / successCriteria / missing-info / clarifications 展示链路，已构成 parser 最小合同闭环；本轮按现行 tasks.md 真值复核后，总勾选数更新为 602 / 602。</text>
  <text x="60" y="1054" class="foot">文件路径：`docs/task-autopilot-18-spec-progress-overview-2026-04-24.svg` | 文件名沿用 2026-04-24，内容刷新至 2026-04-26；顶部核心执行项按 tasks.md 顶层任务行展示，下方卡片展示各 specs 当前 tasks.md 的原始勾选明细，本版确认 18 个 specs 已全部闭合。</text>
</svg>
