<?xml version="1.0" encoding="UTF-8"?>
<svg xmlns="http://www.w3.org/2000/svg" width="1600" height="1120" viewBox="0 0 1600 1120" role="img" aria-labelledby="title desc">
  <title id="title">Web-AIGC 58 份计划执行进度总览</title>
  <desc id="desc">截至 2026-04-23，58 份 web-aigc specs 已全部完成；顶层任务完成 238/238，总体完成率 100.00%。</desc>
  <defs>
    <linearGradient id="bg" x1="0" x2="0" y1="0" y2="1">
      <stop offset="0%" stop-color="#f7fbff"/>
      <stop offset="100%" stop-color="#eef5ff"/>
    </linearGradient>
    <linearGradient id="doneBar" x1="0" x2="1" y1="0" y2="0">
      <stop offset="0%" stop-color="#10b981"/>
      <stop offset="100%" stop-color="#059669"/>
    </linearGradient>
    <filter id="shadow" x="-20%" y="-20%" width="140%" height="140%">
      <feDropShadow dx="0" dy="10" stdDeviation="14" flood-color="#0f172a" flood-opacity="0.08"/>
    </filter>
  </defs>
  <style>
    .title { font: 700 34px "Segoe UI", "PingFang SC", "Microsoft YaHei", sans-serif; fill: #0f172a; }
    .sub { font: 500 16px "Segoe UI", "PingFang SC", "Microsoft YaHei", sans-serif; fill: #475569; }
    .meta { font: 500 13px "Segoe UI", "PingFang SC", "Microsoft YaHei", sans-serif; fill: #64748b; }
    .section { font: 700 22px "Segoe UI", "PingFang SC", "Microsoft YaHei", sans-serif; fill: #0f172a; }
    .cardLabel { font: 600 13px "Segoe UI", "PingFang SC", "Microsoft YaHei", sans-serif; fill: #475569; }
    .cardValue { font: 700 32px "Segoe UI", "PingFang SC", "Microsoft YaHei", sans-serif; fill: #0f172a; }
    .smallValue { font: 700 24px "Segoe UI", "PingFang SC", "Microsoft YaHei", sans-serif; fill: #0f172a; }
    .legend { font: 600 13px "Segoe UI", "PingFang SC", "Microsoft YaHei", sans-serif; fill: #334155; }
    .list { font: 600 14px "Segoe UI", "PingFang SC", "Microsoft YaHei", sans-serif; fill: #1e293b; }
    .listSub { font: 500 12px "Segoe UI", "PingFang SC", "Microsoft YaHei", sans-serif; fill: #64748b; }
  </style>
  <rect x="0" y="0" width="1600" height="1120" fill="url(#bg)"/>

  <rect x="36" y="28" width="1528" height="180" rx="26" fill="#ffffff" stroke="#dbe6f3" stroke-width="1.2" filter="url(#shadow)"/>
  <text x="64" y="74" class="title">Web-AIGC 58 份计划执行进度总览</text>
  <text x="64" y="105" class="sub">统计时间：2026-04-23；口径：仅统计 `.kiro/specs/web-aigc-*/tasks.md` 顶层 checklist。</text>
  <text x="64" y="132" class="meta">当前状态：58 份 specs 全部完成，节点层 52/52、平台层 6/6 全部收口。</text>
  <text x="64" y="156" class="meta">本轮主线接入已覆盖：ai-ppt、dynamic-chart、excel-read、file-generation、file-slicing、file-translation、transaction-flow、orchestration-recognition-jump、vector-update、vector-delete。</text>

  <text x="1490" y="78" text-anchor="end" class="meta">总体完成率</text>
  <text x="1490" y="122" text-anchor="end" class="title">100.00%</text>
  <rect x="1170" y="144" width="320" height="14" rx="7" fill="#dbeafe"/>
  <rect x="1170" y="144" width="320" height="14" rx="7" fill="#2563eb"/>

  <circle cx="1178" cy="182" r="7" fill="#10b981"/>
  <text x="1194" y="187" class="legend">已完成</text>
  <circle cx="1274" cy="182" r="7" fill="#f59e0b"/>
  <text x="1290" y="187" class="legend">部分完成</text>
  <circle cx="1388" cy="182" r="7" fill="#94a3b8"/>
  <text x="1404" y="187" class="legend">未完成</text>

  <rect x="36" y="232" width="1528" height="176" rx="24" fill="#ffffff" stroke="#dbe6f3" stroke-width="1.2" filter="url(#shadow)"/>
  <text x="64" y="268" class="section">总体指标</text>

  <rect x="64" y="292" width="216" height="84" rx="18" fill="#f8fafc" stroke="#dbe6f3"/>
  <text x="84" y="318" class="cardLabel">总 spec</text>
  <text x="84" y="354" class="cardValue">58</text>
  <text x="256" y="354" text-anchor="end" class="meta">平台 6 + 节点 52</text>

  <rect x="300" y="292" width="216" height="84" rx="18" fill="#ecfdf3" stroke="#a7f3d0"/>
  <text x="320" y="318" class="cardLabel">已完成</text>
  <text x="320" y="354" class="cardValue">58</text>
  <text x="492" y="354" text-anchor="end" class="meta">100.00%</text>

  <rect x="536" y="292" width="216" height="84" rx="18" fill="#fff7ed" stroke="#fed7aa"/>
  <text x="556" y="318" class="cardLabel">部分完成</text>
  <text x="556" y="354" class="cardValue">0</text>
  <text x="728" y="354" text-anchor="end" class="meta">已清零</text>

  <rect x="772" y="292" width="216" height="84" rx="18" fill="#f8fafc" stroke="#dbe6f3"/>
  <text x="792" y="318" class="cardLabel">未完成</text>
  <text x="792" y="354" class="cardValue">0</text>
  <text x="964" y="354" text-anchor="end" class="meta">全部收口</text>

  <rect x="1008" y="292" width="256" height="84" rx="18" fill="#eff6ff" stroke="#bfdbfe"/>
  <text x="1028" y="318" class="cardLabel">顶层任务进度</text>
  <text x="1028" y="354" class="smallValue">238 / 238</text>
  <text x="1238" y="354" text-anchor="end" class="meta">剩余 0</text>

  <rect x="1284" y="292" width="248" height="84" rx="18" fill="#f8fafc" stroke="#dbe6f3"/>
  <text x="1304" y="318" class="cardLabel">验证结果</text>
  <text x="1304" y="354" class="smallValue">主线 + 定向测试通过</text>
  <text x="1510" y="354" text-anchor="end" class="meta">含 runtime 集成</text>

  <rect x="36" y="432" width="744" height="300" rx="24" fill="#ffffff" stroke="#dbe6f3" stroke-width="1.2" filter="url(#shadow)"/>
  <text x="64" y="468" class="section">分层视角</text>

  <text x="64" y="514" class="cardLabel">平台层</text>
  <text x="64" y="552" class="cardValue">6 / 0 / 0</text>
  <text x="64" y="578" class="meta">已完成 / 部分完成 / 未完成</text>
  <rect x="64" y="600" width="680" height="16" rx="8" fill="#e2e8f0"/>
  <rect x="64" y="600" width="680" height="16" rx="8" fill="url(#doneBar)"/>
  <text x="64" y="646" class="meta">顶层任务：30 / 30，完成率 100.00%</text>

  <text x="64" y="690" class="cardLabel">节点层</text>
  <text x="64" y="728" class="cardValue">52 / 0 / 0</text>
  <text x="64" y="754" class="meta">已完成 / 部分完成 / 未完成</text>
  <rect x="64" y="776" width="680" height="16" rx="8" fill="#e2e8f0"/>
  <rect x="64" y="776" width="680" height="16" rx="8" fill="url(#doneBar)"/>
  <text x="64" y="822" class="meta">顶层任务：208 / 208，完成率 100.00%</text>

  <rect x="812" y="432" width="752" height="300" rx="24" fill="#ffffff" stroke="#dbe6f3" stroke-width="1.2" filter="url(#shadow)"/>
  <text x="840" y="468" class="section">本轮收口成果</text>

  <circle cx="848" cy="520" r="6" fill="#10b981"/>
  <text x="866" y="525" class="list">platform-runtime-engine</text>
  <text x="1040" y="525" class="listSub">补齐实例级统一治理预算、统一退避/升级控制与 replay / audit 证据闭环。</text>

  <circle cx="848" cy="560" r="6" fill="#10b981"/>
  <text x="866" y="565" class="list">transaction_flow</text>
  <text x="1040" y="565" class="listSub">补齐审批闸门、审计日志、补偿说明、HTTP route 与 runtime wait/resume/advance 闭环。</text>

  <circle cx="848" cy="600" r="6" fill="#10b981"/>
  <text x="866" y="605" class="list">orchestration_recognition_jump</text>
  <text x="1040" y="605" class="listSub">补齐目标编排识别、显式 jump 边校验、权限审计、上下文继承、HTTP route 与 runtime 跳转闭环。</text>

  <circle cx="848" cy="640" r="6" fill="#10b981"/>
  <text x="866" y="645" class="list">file_translation</text>
  <text x="1040" y="645" class="listSub">已完成独立实现、主线接线与 runtime 集成测试，支持结构保留、产物下载和边界校验。</text>

  <circle cx="848" cy="680" r="6" fill="#10b981"/>
  <text x="866" y="685" class="list">risk-actions</text>
  <text x="1040" y="685" class="listSub">向量写入、更新、删除三类高风险动作均已进入主线路由与治理校验链。</text>

  <rect x="36" y="756" width="744" height="328" rx="24" fill="#ffffff" stroke="#dbe6f3" stroke-width="1.2" filter="url(#shadow)"/>
  <text x="64" y="792" class="section">完成态摘要</text>

  <rect x="64" y="850" width="688" height="128" rx="18" fill="#ecfdf3" stroke="#a7f3d0"/>
  <text x="88" y="880" class="cardLabel">当前状态</text>
  <text x="88" y="916" class="smallValue">58 / 58 全部完成</text>
  <text x="88" y="948" class="meta">已无 partial spec，也无 todo spec；平台层与节点层均已全部收口。</text>
  <text x="88" y="980" class="listSub">当前仓库事实源显示：顶层任务 238 / 238 全部勾选完成。</text>

  <rect x="812" y="756" width="752" height="328" rx="24" fill="#ffffff" stroke="#dbe6f3" stroke-width="1.2" filter="url(#shadow)"/>
  <text x="840" y="792" class="section">验证闭环</text>

  <circle cx="848" cy="842" r="6" fill="#10b981"/>
  <text x="866" y="847" class="list">节点与路由测试</text>
  <text x="1040" y="847" class="listSub">ai_ppt、dynamic_chart、excel_read、file_generation、file_slicing、file_translation、transaction_flow、orchestration_recognition_jump 已通过 adapter + route 定向测试。</text>

  <circle cx="848" cy="892" r="6" fill="#10b981"/>
  <text x="866" y="897" class="list">runtime 集成测试</text>
  <text x="1040" y="897" class="listSub">Office / 文件处理节点、transaction_flow、orchestration_recognition_jump 已通过 workflow runtime 定向集成测试。</text>

  <circle cx="848" cy="942" r="6" fill="#10b981"/>
  <text x="866" y="947" class="list">治理与审计链路</text>
  <text x="1040" y="947" class="listSub">vector-update、vector-delete、risk-actions、runtime observability、jump 审计镜像均已形成最小可验证闭环。</text>

  <text x="64" y="1096" class="meta">生成时间：2026-04-23 | 数据来源：.kiro/specs/web-aigc-*/tasks.md 顶层 checklist</text>
</svg>
