<?xml version="1.0" encoding="UTF-8"?>
<svg xmlns="http://www.w3.org/2000/svg" width="2112" height="1708" viewBox="0 0 2112 1708" role="img" aria-labelledby="title desc">
  <title id="title">Web-AIGC 58 份计划执行进度总览</title>
  <desc id="desc">基于 2026-04-22 主仓 58 份 web-aigc spec 的 tasks.md 勾选状态生成的执行总览图。总任务 238，已完成 96，总体完成率 40%。</desc>
  <defs>
    <linearGradient id="bg" x1="0" y1="0" x2="0" y2="1">
      <stop offset="0%" stop-color="#f8fbff"/>
      <stop offset="100%" stop-color="#edf3ff"/>
    </linearGradient>
    <filter id="shadow" x="-10%" y="-10%" width="120%" height="120%">
      <feDropShadow dx="0" dy="6" stdDeviation="10" flood-color="#0f172a" flood-opacity="0.08"/>
    </filter>
  </defs>
  <style>
    .title { font: 700 34px "Segoe UI", "PingFang SC", "Microsoft YaHei", sans-serif; fill: #0f172a; }
    .sub { font: 500 15px "Segoe UI", "PingFang SC", "Microsoft YaHei", sans-serif; fill: #475569; }
    .meta { font: 500 12px "Segoe UI", "PingFang SC", "Microsoft YaHei", sans-serif; fill: #64748b; }
    .metricLabel { font: 600 13px "Segoe UI", "PingFang SC", "Microsoft YaHei", sans-serif; fill: #475569; }
    .metricValue { font: 700 30px "Segoe UI", "PingFang SC", "Microsoft YaHei", sans-serif; fill: #0f172a; }
    .section { font: 700 22px "Segoe UI", "PingFang SC", "Microsoft YaHei", sans-serif; fill: #0f172a; }
    .sectionMeta { font: 500 13px "Segoe UI", "PingFang SC", "Microsoft YaHei", sans-serif; fill: #64748b; }
    .cardTitle { font: 700 18px "Segoe UI", "PingFang SC", "Microsoft YaHei", sans-serif; fill: #0f172a; }
    .cardId { font: 500 11px "Cascadia Mono", "Consolas", monospace; fill: #475569; }
    .cardTask { font: 600 12px "Segoe UI", "PingFang SC", "Microsoft YaHei", sans-serif; fill: #334155; }
    .badge { font: 700 11px "Segoe UI", "PingFang SC", "Microsoft YaHei", sans-serif; fill: #0f172a; }
    .pct { font: 700 24px "Segoe UI", "PingFang SC", "Microsoft YaHei", sans-serif; fill: #0f172a; }
    .legend { font: 600 12px "Segoe UI", "PingFang SC", "Microsoft YaHei", sans-serif; fill: #334155; }
  </style>
  <rect x="0" y="0" width="2112" height="1708" fill="url(#bg)"/>
  <rect x="32" y="28" width="2048" height="208" rx="26" fill="#ffffff" stroke="#dbe6f3" stroke-width="1.2" filter="url(#shadow)"/>
  <text x="56" y="74" class="title">Web-AIGC 58 份计划执行进度总览</text>
  <text x="56" y="102" class="sub">统计时间：2026-04-22；统计口径：读取 .kiro/specs 下全部 58 份 web-aigc-* 目录的 tasks.md 顶层复选项。</text>
  <text x="56" y="126" class="meta">状态分布：已完成 20，进行中 4，未启动 34。平台完成 29/30，节点完成 67/208。</text>
  <text x="1944" y="78" text-anchor="end" class="meta">总体任务完成率</text>
  <text x="2028" y="112" text-anchor="end" class="title">40%</text>
  <rect x="1670" y="126" width="358" height="12" rx="6" fill="#dbeafe"/>
  <rect x="1670" y="126" width="143" height="12" rx="6" fill="#2563eb"/>
  <circle cx="1678" cy="164" r="7" fill="#10b981"/><text x="1694" y="169" class="legend">已完成</text>
  <circle cx="1774" cy="164" r="7" fill="#f59e0b"/><text x="1790" y="169" class="legend">进行中</text>
  <circle cx="1870" cy="164" r="7" fill="#94a3b8"/><text x="1886" y="169" class="legend">未启动</text>
  <rect x="56" y="150" width="250" height="58" rx="16" fill="#f8fafc" stroke="#dbe6f3" stroke-width="1"/>
  <text x="72" y="173" class="metricLabel">总 spec</text>
  <text x="72" y="198" class="metricValue">58</text>
  <text x="290" y="198" text-anchor="end" class="meta">平台 6 + 节点 52</text>
  <rect x="320" y="150" width="250" height="58" rx="16" fill="#f8fafc" stroke="#dbe6f3" stroke-width="1"/>
  <text x="336" y="173" class="metricLabel">已完成 spec</text>
  <text x="336" y="198" class="metricValue">20</text>
  <text x="554" y="198" text-anchor="end" class="meta">done</text>
  <rect x="584" y="150" width="250" height="58" rx="16" fill="#f8fafc" stroke="#dbe6f3" stroke-width="1"/>
  <text x="600" y="173" class="metricLabel">进行中 spec</text>
  <text x="600" y="198" class="metricValue">4</text>
  <text x="818" y="198" text-anchor="end" class="meta">in progress</text>
  <rect x="848" y="150" width="250" height="58" rx="16" fill="#f8fafc" stroke="#dbe6f3" stroke-width="1"/>
  <text x="864" y="173" class="metricLabel">未启动 spec</text>
  <text x="864" y="198" class="metricValue">34</text>
  <text x="1082" y="198" text-anchor="end" class="meta">not started</text>
  <rect x="1112" y="150" width="250" height="58" rx="16" fill="#f8fafc" stroke="#dbe6f3" stroke-width="1"/>
  <text x="1128" y="173" class="metricLabel">总任务完成</text>
  <text x="1128" y="198" class="metricValue">96/238</text>
  <text x="1346" y="198" text-anchor="end" class="meta">40%</text>
  <rect x="1376" y="150" width="250" height="58" rx="16" fill="#f8fafc" stroke="#dbe6f3" stroke-width="1"/>
  <text x="1392" y="173" class="metricLabel">平台 / 节点</text>
  <text x="1392" y="198" class="metricValue">29/30 | 67/208</text>
  <text x="1610" y="198" text-anchor="end" class="meta">97% / 32%</text>
  <rect x="32" y="236" width="2048" height="200" rx="26" fill="#ffffff" stroke="#dbe6f3" stroke-width="1.2" filter="url(#shadow)"/>
  <text x="56" y="272" class="section">平台能力层</text>
  <text x="200" y="272" class="sectionMeta">6 份规格，任务完成 29/30，完成率 97%</text>
  <rect x="32" y="460" width="2048" height="1208" rx="26" fill="#ffffff" stroke="#dbe6f3" stroke-width="1.2" filter="url(#shadow)"/>
  <text x="56" y="496" class="section">节点能力层</text>
  <text x="200" y="496" class="sectionMeta">52 份规格，任务完成 67/208，完成率 32%</text>
  <g>
    <title>web-aigc-platform-domain-model | 5/5 | 100% | 已完成</title>
    <rect x="48" y="292" width="324" height="110" rx="18" fill="#ecfdf3" stroke="#10b981" stroke-width="1.6"/>
    <rect x="62" y="306" width="72" height="22" rx="11" fill="#d1fae5"/>
    <text x="98" y="321" text-anchor="middle" class="badge">已完成</text>
    <text x="354" y="322" text-anchor="end" class="pct">100%</text>
    <text x="62" y="348" class="cardTitle">平台领域模型</text>
    <text x="62" y="368" class="cardId">domain-model</text>
    <text x="62" y="388" class="cardTask">任务 5/5</text>
    <rect x="152" y="381" width="206" height="10" rx="5" fill="#dbe6f3"/>
    <rect x="152" y="381" width="206" height="10" rx="5" fill="#10b981"/>
  </g>
  <g>
    <title>web-aigc-platform-mission-projection | 5/5 | 100% | 已完成</title>
    <rect x="388" y="292" width="324" height="110" rx="18" fill="#ecfdf3" stroke="#10b981" stroke-width="1.6"/>
    <rect x="402" y="306" width="72" height="22" rx="11" fill="#d1fae5"/>
    <text x="438" y="321" text-anchor="middle" class="badge">已完成</text>
    <text x="694" y="322" text-anchor="end" class="pct">100%</text>
    <text x="402" y="348" class="cardTitle">使命投影视图</text>
    <text x="402" y="368" class="cardId">mission-projection</text>
    <text x="402" y="388" class="cardTask">任务 5/5</text>
    <rect x="492" y="381" width="206" height="10" rx="5" fill="#dbe6f3"/>
    <rect x="492" y="381" width="206" height="10" rx="5" fill="#10b981"/>
  </g>
  <g>
    <title>web-aigc-platform-observability-audit | 5/5 | 100% | 已完成</title>
    <rect x="728" y="292" width="324" height="110" rx="18" fill="#ecfdf3" stroke="#10b981" stroke-width="1.6"/>
    <rect x="742" y="306" width="72" height="22" rx="11" fill="#d1fae5"/>
    <text x="778" y="321" text-anchor="middle" class="badge">已完成</text>
    <text x="1034" y="322" text-anchor="end" class="pct">100%</text>
    <text x="742" y="348" class="cardTitle">可观测与审计</text>
    <text x="742" y="368" class="cardId">observability-audit</text>
    <text x="742" y="388" class="cardTask">任务 5/5</text>
    <rect x="832" y="381" width="206" height="10" rx="5" fill="#dbe6f3"/>
    <rect x="832" y="381" width="206" height="10" rx="5" fill="#10b981"/>
  </g>
  <g>
    <title>web-aigc-platform-runtime-engine | 4/5 | 80% | 进行中</title>
    <rect x="1068" y="292" width="324" height="110" rx="18" fill="#fff7ed" stroke="#f59e0b" stroke-width="1.6"/>
    <rect x="1082" y="306" width="72" height="22" rx="11" fill="#ffedd5"/>
    <text x="1118" y="321" text-anchor="middle" class="badge">进行中</text>
    <text x="1374" y="322" text-anchor="end" class="pct">80%</text>
    <text x="1082" y="348" class="cardTitle">运行时引擎</text>
    <text x="1082" y="368" class="cardId">runtime-engine</text>
    <text x="1082" y="388" class="cardTask">任务 4/5</text>
    <rect x="1172" y="381" width="206" height="10" rx="5" fill="#dbe6f3"/>
    <rect x="1172" y="381" width="165" height="10" rx="5" fill="#f59e0b"/>
  </g>
  <g>
    <title>web-aigc-platform-security-governance | 5/5 | 100% | 已完成</title>
    <rect x="1408" y="292" width="324" height="110" rx="18" fill="#ecfdf3" stroke="#10b981" stroke-width="1.6"/>
    <rect x="1422" y="306" width="72" height="22" rx="11" fill="#d1fae5"/>
    <text x="1458" y="321" text-anchor="middle" class="badge">已完成</text>
    <text x="1714" y="322" text-anchor="end" class="pct">100%</text>
    <text x="1422" y="348" class="cardTitle">安全治理</text>
    <text x="1422" y="368" class="cardId">security-governance</text>
    <text x="1422" y="388" class="cardTask">任务 5/5</text>
    <rect x="1512" y="381" width="206" height="10" rx="5" fill="#dbe6f3"/>
    <rect x="1512" y="381" width="206" height="10" rx="5" fill="#10b981"/>
  </g>
  <g>
    <title>web-aigc-platform-session-instance | 5/5 | 100% | 已完成</title>
    <rect x="1748" y="292" width="324" height="110" rx="18" fill="#ecfdf3" stroke="#10b981" stroke-width="1.6"/>
    <rect x="1762" y="306" width="72" height="22" rx="11" fill="#d1fae5"/>
    <text x="1798" y="321" text-anchor="middle" class="badge">已完成</text>
    <text x="2054" y="322" text-anchor="end" class="pct">100%</text>
    <text x="1762" y="348" class="cardTitle">会话实例</text>
    <text x="1762" y="368" class="cardId">session-instance</text>
    <text x="1762" y="388" class="cardTask">任务 5/5</text>
    <rect x="1852" y="381" width="206" height="10" rx="5" fill="#dbe6f3"/>
    <rect x="1852" y="381" width="206" height="10" rx="5" fill="#10b981"/>
  </g>
  <g>
    <title>web-aigc-node-ai_ppt | 0/4 | 0% | 未启动</title>
    <rect x="48" y="516" width="324" height="110" rx="18" fill="#f8fafc" stroke="#cbd5e1" stroke-width="1.6"/>
    <rect x="62" y="530" width="72" height="22" rx="11" fill="#e2e8f0"/>
    <text x="98" y="545" text-anchor="middle" class="badge">未启动</text>
    <text x="354" y="546" text-anchor="end" class="pct">0%</text>
    <text x="62" y="572" class="cardTitle">AI PPT</text>
    <text x="62" y="592" class="cardId">ai_ppt</text>
    <text x="62" y="612" class="cardTask">任务 0/4</text>
    <rect x="152" y="605" width="206" height="10" rx="5" fill="#dbe6f3"/>
    <rect x="152" y="605" width="0" height="10" rx="5" fill="#94a3b8"/>
  </g>
  <g>
    <title>web-aigc-node-audio_recognition | 0/4 | 0% | 未启动</title>
    <rect x="388" y="516" width="324" height="110" rx="18" fill="#f8fafc" stroke="#cbd5e1" stroke-width="1.6"/>
    <rect x="402" y="530" width="72" height="22" rx="11" fill="#e2e8f0"/>
    <text x="438" y="545" text-anchor="middle" class="badge">未启动</text>
    <text x="694" y="546" text-anchor="end" class="pct">0%</text>
    <text x="402" y="572" class="cardTitle">音频识别</text>
    <text x="402" y="592" class="cardId">audio_recognition</text>
    <text x="402" y="612" class="cardTask">任务 0/4</text>
    <rect x="492" y="605" width="206" height="10" rx="5" fill="#dbe6f3"/>
    <rect x="492" y="605" width="0" height="10" rx="5" fill="#94a3b8"/>
  </g>
  <g>
    <title>web-aigc-node-auto_agent | 4/4 | 100% | 已完成</title>
    <rect x="728" y="516" width="324" height="110" rx="18" fill="#ecfdf3" stroke="#10b981" stroke-width="1.6"/>
    <rect x="742" y="530" width="72" height="22" rx="11" fill="#d1fae5"/>
    <text x="778" y="545" text-anchor="middle" class="badge">已完成</text>
    <text x="1034" y="546" text-anchor="end" class="pct">100%</text>
    <text x="742" y="572" class="cardTitle">自动智能体</text>
    <text x="742" y="592" class="cardId">auto_agent</text>
    <text x="742" y="612" class="cardTask">任务 4/4</text>
    <rect x="832" y="605" width="206" height="10" rx="5" fill="#dbe6f3"/>
    <rect x="832" y="605" width="206" height="10" rx="5" fill="#10b981"/>
  </g>
  <g>
    <title>web-aigc-node-command_list | 0/4 | 0% | 未启动</title>
    <rect x="1068" y="516" width="324" height="110" rx="18" fill="#f8fafc" stroke="#cbd5e1" stroke-width="1.6"/>
    <rect x="1082" y="530" width="72" height="22" rx="11" fill="#e2e8f0"/>
    <text x="1118" y="545" text-anchor="middle" class="badge">未启动</text>
    <text x="1374" y="546" text-anchor="end" class="pct">0%</text>
    <text x="1082" y="572" class="cardTitle">指令列表</text>
    <text x="1082" y="592" class="cardId">command_list</text>
    <text x="1082" y="612" class="cardTask">任务 0/4</text>
    <rect x="1172" y="605" width="206" height="10" rx="5" fill="#dbe6f3"/>
    <rect x="1172" y="605" width="0" height="10" rx="5" fill="#94a3b8"/>
  </g>
  <g>
    <title>web-aigc-node-condition | 4/4 | 100% | 已完成</title>
    <rect x="1408" y="516" width="324" height="110" rx="18" fill="#ecfdf3" stroke="#10b981" stroke-width="1.6"/>
    <rect x="1422" y="530" width="72" height="22" rx="11" fill="#d1fae5"/>
    <text x="1458" y="545" text-anchor="middle" class="badge">已完成</text>
    <text x="1714" y="546" text-anchor="end" class="pct">100%</text>
    <text x="1422" y="572" class="cardTitle">条件判断</text>
    <text x="1422" y="592" class="cardId">condition</text>
    <text x="1422" y="612" class="cardTask">任务 4/4</text>
    <rect x="1512" y="605" width="206" height="10" rx="5" fill="#dbe6f3"/>
    <rect x="1512" y="605" width="206" height="10" rx="5" fill="#10b981"/>
  </g>
  <g>
    <title>web-aigc-node-confirm_judge | 4/4 | 100% | 已完成</title>
    <rect x="1748" y="516" width="324" height="110" rx="18" fill="#ecfdf3" stroke="#10b981" stroke-width="1.6"/>
    <rect x="1762" y="530" width="72" height="22" rx="11" fill="#d1fae5"/>
    <text x="1798" y="545" text-anchor="middle" class="badge">已完成</text>
    <text x="2054" y="546" text-anchor="end" class="pct">100%</text>
    <text x="1762" y="572" class="cardTitle">确认判断</text>
    <text x="1762" y="592" class="cardId">confirm_judge</text>
    <text x="1762" y="612" class="cardTask">任务 4/4</text>
    <rect x="1852" y="605" width="206" height="10" rx="5" fill="#dbe6f3"/>
    <rect x="1852" y="605" width="206" height="10" rx="5" fill="#10b981"/>
  </g>
  <g>
    <title>web-aigc-node-dialogue | 3/4 | 75% | 进行中</title>
    <rect x="48" y="642" width="324" height="110" rx="18" fill="#fff7ed" stroke="#f59e0b" stroke-width="1.6"/>
    <rect x="62" y="656" width="72" height="22" rx="11" fill="#ffedd5"/>
    <text x="98" y="671" text-anchor="middle" class="badge">进行中</text>
    <text x="354" y="672" text-anchor="end" class="pct">75%</text>
    <text x="62" y="698" class="cardTitle">对话</text>
    <text x="62" y="718" class="cardId">dialogue</text>
    <text x="62" y="738" class="cardTask">任务 3/4</text>
    <rect x="152" y="731" width="206" height="10" rx="5" fill="#dbe6f3"/>
    <rect x="152" y="731" width="154" height="10" rx="5" fill="#f59e0b"/>
  </g>
  <g>
    <title>web-aigc-node-document_search | 4/4 | 100% | 已完成</title>
    <rect x="388" y="642" width="324" height="110" rx="18" fill="#ecfdf3" stroke="#10b981" stroke-width="1.6"/>
    <rect x="402" y="656" width="72" height="22" rx="11" fill="#d1fae5"/>
    <text x="438" y="671" text-anchor="middle" class="badge">已完成</text>
    <text x="694" y="672" text-anchor="end" class="pct">100%</text>
    <text x="402" y="698" class="cardTitle">文档搜索</text>
    <text x="402" y="718" class="cardId">document_search</text>
    <text x="402" y="738" class="cardTask">任务 4/4</text>
    <rect x="492" y="731" width="206" height="10" rx="5" fill="#dbe6f3"/>
    <rect x="492" y="731" width="206" height="10" rx="5" fill="#10b981"/>
  </g>
  <g>
    <title>web-aigc-node-dynamic_chart | 0/4 | 0% | 未启动</title>
    <rect x="728" y="642" width="324" height="110" rx="18" fill="#f8fafc" stroke="#cbd5e1" stroke-width="1.6"/>
    <rect x="742" y="656" width="72" height="22" rx="11" fill="#e2e8f0"/>
    <text x="778" y="671" text-anchor="middle" class="badge">未启动</text>
    <text x="1034" y="672" text-anchor="end" class="pct">0%</text>
    <text x="742" y="698" class="cardTitle">动态图表</text>
    <text x="742" y="718" class="cardId">dynamic_chart</text>
    <text x="742" y="738" class="cardTask">任务 0/4</text>
    <rect x="832" y="731" width="206" height="10" rx="5" fill="#dbe6f3"/>
    <rect x="832" y="731" width="0" height="10" rx="5" fill="#94a3b8"/>
  </g>
  <g>
    <title>web-aigc-node-end | 4/4 | 100% | 已完成</title>
    <rect x="1068" y="642" width="324" height="110" rx="18" fill="#ecfdf3" stroke="#10b981" stroke-width="1.6"/>
    <rect x="1082" y="656" width="72" height="22" rx="11" fill="#d1fae5"/>
    <text x="1118" y="671" text-anchor="middle" class="badge">已完成</text>
    <text x="1374" y="672" text-anchor="end" class="pct">100%</text>
    <text x="1082" y="698" class="cardTitle">结束</text>
    <text x="1082" y="718" class="cardId">end</text>
    <text x="1082" y="738" class="cardTask">任务 4/4</text>
    <rect x="1172" y="731" width="206" height="10" rx="5" fill="#dbe6f3"/>
    <rect x="1172" y="731" width="206" height="10" rx="5" fill="#10b981"/>
  </g>
  <g>
    <title>web-aigc-node-excel_read | 0/4 | 0% | 未启动</title>
    <rect x="1408" y="642" width="324" height="110" rx="18" fill="#f8fafc" stroke="#cbd5e1" stroke-width="1.6"/>
    <rect x="1422" y="656" width="72" height="22" rx="11" fill="#e2e8f0"/>
    <text x="1458" y="671" text-anchor="middle" class="badge">未启动</text>
    <text x="1714" y="672" text-anchor="end" class="pct">0%</text>
    <text x="1422" y="698" class="cardTitle">Excel 读取</text>
    <text x="1422" y="718" class="cardId">excel_read</text>
    <text x="1422" y="738" class="cardTask">任务 0/4</text>
    <rect x="1512" y="731" width="206" height="10" rx="5" fill="#dbe6f3"/>
    <rect x="1512" y="731" width="0" height="10" rx="5" fill="#94a3b8"/>
  </g>
  <g>
    <title>web-aigc-node-file_generation | 0/4 | 0% | 未启动</title>
    <rect x="1748" y="642" width="324" height="110" rx="18" fill="#f8fafc" stroke="#cbd5e1" stroke-width="1.6"/>
    <rect x="1762" y="656" width="72" height="22" rx="11" fill="#e2e8f0"/>
    <text x="1798" y="671" text-anchor="middle" class="badge">未启动</text>
    <text x="2054" y="672" text-anchor="end" class="pct">0%</text>
    <text x="1762" y="698" class="cardTitle">文件生成</text>
    <text x="1762" y="718" class="cardId">file_generation</text>
    <text x="1762" y="738" class="cardTask">任务 0/4</text>
    <rect x="1852" y="731" width="206" height="10" rx="5" fill="#dbe6f3"/>
    <rect x="1852" y="731" width="0" height="10" rx="5" fill="#94a3b8"/>
  </g>
  <g>
    <title>web-aigc-node-file_slicing | 0/4 | 0% | 未启动</title>
    <rect x="48" y="768" width="324" height="110" rx="18" fill="#f8fafc" stroke="#cbd5e1" stroke-width="1.6"/>
    <rect x="62" y="782" width="72" height="22" rx="11" fill="#e2e8f0"/>
    <text x="98" y="797" text-anchor="middle" class="badge">未启动</text>
    <text x="354" y="798" text-anchor="end" class="pct">0%</text>
    <text x="62" y="824" class="cardTitle">文件切片</text>
    <text x="62" y="844" class="cardId">file_slicing</text>
    <text x="62" y="864" class="cardTask">任务 0/4</text>
    <rect x="152" y="857" width="206" height="10" rx="5" fill="#dbe6f3"/>
    <rect x="152" y="857" width="0" height="10" rx="5" fill="#94a3b8"/>
  </g>
  <g>
    <title>web-aigc-node-file_translation | 0/4 | 0% | 未启动</title>
    <rect x="388" y="768" width="324" height="110" rx="18" fill="#f8fafc" stroke="#cbd5e1" stroke-width="1.6"/>
    <rect x="402" y="782" width="72" height="22" rx="11" fill="#e2e8f0"/>
    <text x="438" y="797" text-anchor="middle" class="badge">未启动</text>
    <text x="694" y="798" text-anchor="end" class="pct">0%</text>
    <text x="402" y="824" class="cardTitle">文件翻译</text>
    <text x="402" y="844" class="cardId">file_translation</text>
    <text x="402" y="864" class="cardTask">任务 0/4</text>
    <rect x="492" y="857" width="206" height="10" rx="5" fill="#dbe6f3"/>
    <rect x="492" y="857" width="0" height="10" rx="5" fill="#94a3b8"/>
  </g>
  <g>
    <title>web-aigc-node-flow_jump | 0/4 | 0% | 未启动</title>
    <rect x="728" y="768" width="324" height="110" rx="18" fill="#f8fafc" stroke="#cbd5e1" stroke-width="1.6"/>
    <rect x="742" y="782" width="72" height="22" rx="11" fill="#e2e8f0"/>
    <text x="778" y="797" text-anchor="middle" class="badge">未启动</text>
    <text x="1034" y="798" text-anchor="end" class="pct">0%</text>
    <text x="742" y="824" class="cardTitle">流程跳转</text>
    <text x="742" y="844" class="cardId">flow_jump</text>
    <text x="742" y="864" class="cardTask">任务 0/4</text>
    <rect x="832" y="857" width="206" height="10" rx="5" fill="#dbe6f3"/>
    <rect x="832" y="857" width="0" height="10" rx="5" fill="#94a3b8"/>
  </g>
  <g>
    <title>web-aigc-node-format_output | 0/4 | 0% | 未启动</title>
    <rect x="1068" y="768" width="324" height="110" rx="18" fill="#f8fafc" stroke="#cbd5e1" stroke-width="1.6"/>
    <rect x="1082" y="782" width="72" height="22" rx="11" fill="#e2e8f0"/>
    <text x="1118" y="797" text-anchor="middle" class="badge">未启动</text>
    <text x="1374" y="798" text-anchor="end" class="pct">0%</text>
    <text x="1082" y="824" class="cardTitle">格式化输出</text>
    <text x="1082" y="844" class="cardId">format_output</text>
    <text x="1082" y="864" class="cardTask">任务 0/4</text>
    <rect x="1172" y="857" width="206" height="10" rx="5" fill="#dbe6f3"/>
    <rect x="1172" y="857" width="0" height="10" rx="5" fill="#94a3b8"/>
  </g>
  <g>
    <title>web-aigc-node-fragment_search | 0/4 | 0% | 未启动</title>
    <rect x="1408" y="768" width="324" height="110" rx="18" fill="#f8fafc" stroke="#cbd5e1" stroke-width="1.6"/>
    <rect x="1422" y="782" width="72" height="22" rx="11" fill="#e2e8f0"/>
    <text x="1458" y="797" text-anchor="middle" class="badge">未启动</text>
    <text x="1714" y="798" text-anchor="end" class="pct">0%</text>
    <text x="1422" y="824" class="cardTitle">片段搜索</text>
    <text x="1422" y="844" class="cardId">fragment_search</text>
    <text x="1422" y="864" class="cardTask">任务 0/4</text>
    <rect x="1512" y="857" width="206" height="10" rx="5" fill="#dbe6f3"/>
    <rect x="1512" y="857" width="0" height="10" rx="5" fill="#94a3b8"/>
  </g>
  <g>
    <title>web-aigc-node-get_device_info | 0/4 | 0% | 未启动</title>
    <rect x="1748" y="768" width="324" height="110" rx="18" fill="#f8fafc" stroke="#cbd5e1" stroke-width="1.6"/>
    <rect x="1762" y="782" width="72" height="22" rx="11" fill="#e2e8f0"/>
    <text x="1798" y="797" text-anchor="middle" class="badge">未启动</text>
    <text x="2054" y="798" text-anchor="end" class="pct">0%</text>
    <text x="1762" y="824" class="cardTitle">设备信息</text>
    <text x="1762" y="844" class="cardId">get_device_info</text>
    <text x="1762" y="864" class="cardTask">任务 0/4</text>
    <rect x="1852" y="857" width="206" height="10" rx="5" fill="#dbe6f3"/>
    <rect x="1852" y="857" width="0" height="10" rx="5" fill="#94a3b8"/>
  </g>
  <g>
    <title>web-aigc-node-get_location_info | 0/4 | 0% | 未启动</title>
    <rect x="48" y="894" width="324" height="110" rx="18" fill="#f8fafc" stroke="#cbd5e1" stroke-width="1.6"/>
    <rect x="62" y="908" width="72" height="22" rx="11" fill="#e2e8f0"/>
    <text x="98" y="923" text-anchor="middle" class="badge">未启动</text>
    <text x="354" y="924" text-anchor="end" class="pct">0%</text>
    <text x="62" y="950" class="cardTitle">位置信息</text>
    <text x="62" y="970" class="cardId">get_location_info</text>
    <text x="62" y="990" class="cardTask">任务 0/4</text>
    <rect x="152" y="983" width="206" height="10" rx="5" fill="#dbe6f3"/>
    <rect x="152" y="983" width="0" height="10" rx="5" fill="#94a3b8"/>
  </g>
  <g>
    <title>web-aigc-node-graph_search | 0/4 | 0% | 未启动</title>
    <rect x="388" y="894" width="324" height="110" rx="18" fill="#f8fafc" stroke="#cbd5e1" stroke-width="1.6"/>
    <rect x="402" y="908" width="72" height="22" rx="11" fill="#e2e8f0"/>
    <text x="438" y="923" text-anchor="middle" class="badge">未启动</text>
    <text x="694" y="924" text-anchor="end" class="pct">0%</text>
    <text x="402" y="950" class="cardTitle">图谱搜索</text>
    <text x="402" y="970" class="cardId">graph_search</text>
    <text x="402" y="990" class="cardTask">任务 0/4</text>
    <rect x="492" y="983" width="206" height="10" rx="5" fill="#dbe6f3"/>
    <rect x="492" y="983" width="0" height="10" rx="5" fill="#94a3b8"/>
  </g>
  <g>
    <title>web-aigc-node-image_search | 0/4 | 0% | 未启动</title>
    <rect x="728" y="894" width="324" height="110" rx="18" fill="#f8fafc" stroke="#cbd5e1" stroke-width="1.6"/>
    <rect x="742" y="908" width="72" height="22" rx="11" fill="#e2e8f0"/>
    <text x="778" y="923" text-anchor="middle" class="badge">未启动</text>
    <text x="1034" y="924" text-anchor="end" class="pct">0%</text>
    <text x="742" y="950" class="cardTitle">图片搜索</text>
    <text x="742" y="970" class="cardId">image_search</text>
    <text x="742" y="990" class="cardTask">任务 0/4</text>
    <rect x="832" y="983" width="206" height="10" rx="5" fill="#dbe6f3"/>
    <rect x="832" y="983" width="0" height="10" rx="5" fill="#94a3b8"/>
  </g>
  <g>
    <title>web-aigc-node-intent_recognition | 0/4 | 0% | 未启动</title>
    <rect x="1068" y="894" width="324" height="110" rx="18" fill="#f8fafc" stroke="#cbd5e1" stroke-width="1.6"/>
    <rect x="1082" y="908" width="72" height="22" rx="11" fill="#e2e8f0"/>
    <text x="1118" y="923" text-anchor="middle" class="badge">未启动</text>
    <text x="1374" y="924" text-anchor="end" class="pct">0%</text>
    <text x="1082" y="950" class="cardTitle">意图识别</text>
    <text x="1082" y="970" class="cardId">intent_recognition</text>
    <text x="1082" y="990" class="cardTask">任务 0/4</text>
    <rect x="1172" y="983" width="206" height="10" rx="5" fill="#dbe6f3"/>
    <rect x="1172" y="983" width="0" height="10" rx="5" fill="#94a3b8"/>
  </g>
  <g>
    <title>web-aigc-node-internal_api | 4/4 | 100% | 已完成</title>
    <rect x="1408" y="894" width="324" height="110" rx="18" fill="#ecfdf3" stroke="#10b981" stroke-width="1.6"/>
    <rect x="1422" y="908" width="72" height="22" rx="11" fill="#d1fae5"/>
    <text x="1458" y="923" text-anchor="middle" class="badge">已完成</text>
    <text x="1714" y="924" text-anchor="end" class="pct">100%</text>
    <text x="1422" y="950" class="cardTitle">内部 API</text>
    <text x="1422" y="970" class="cardId">internal_api</text>
    <text x="1422" y="990" class="cardTask">任务 4/4</text>
    <rect x="1512" y="983" width="206" height="10" rx="5" fill="#dbe6f3"/>
    <rect x="1512" y="983" width="206" height="10" rx="5" fill="#10b981"/>
  </g>
  <g>
    <title>web-aigc-node-knowledge_qa | 4/4 | 100% | 已完成</title>
    <rect x="1748" y="894" width="324" height="110" rx="18" fill="#ecfdf3" stroke="#10b981" stroke-width="1.6"/>
    <rect x="1762" y="908" width="72" height="22" rx="11" fill="#d1fae5"/>
    <text x="1798" y="923" text-anchor="middle" class="badge">已完成</text>
    <text x="2054" y="924" text-anchor="end" class="pct">100%</text>
    <text x="1762" y="950" class="cardTitle">知识问答</text>
    <text x="1762" y="970" class="cardId">knowledge_qa</text>
    <text x="1762" y="990" class="cardTask">任务 4/4</text>
    <rect x="1852" y="983" width="206" height="10" rx="5" fill="#dbe6f3"/>
    <rect x="1852" y="983" width="206" height="10" rx="5" fill="#10b981"/>
  </g>
  <g>
    <title>web-aigc-node-llm | 4/4 | 100% | 已完成</title>
    <rect x="48" y="1020" width="324" height="110" rx="18" fill="#ecfdf3" stroke="#10b981" stroke-width="1.6"/>
    <rect x="62" y="1034" width="72" height="22" rx="11" fill="#d1fae5"/>
    <text x="98" y="1049" text-anchor="middle" class="badge">已完成</text>
    <text x="354" y="1050" text-anchor="end" class="pct">100%</text>
    <text x="62" y="1076" class="cardTitle">大模型</text>
    <text x="62" y="1096" class="cardId">llm</text>
    <text x="62" y="1116" class="cardTask">任务 4/4</text>
    <rect x="152" y="1109" width="206" height="10" rx="5" fill="#dbe6f3"/>
    <rect x="152" y="1109" width="206" height="10" rx="5" fill="#10b981"/>
  </g>
  <g>
    <title>web-aigc-node-long_text_extraction | 0/4 | 0% | 未启动</title>
    <rect x="388" y="1020" width="324" height="110" rx="18" fill="#f8fafc" stroke="#cbd5e1" stroke-width="1.6"/>
    <rect x="402" y="1034" width="72" height="22" rx="11" fill="#e2e8f0"/>
    <text x="438" y="1049" text-anchor="middle" class="badge">未启动</text>
    <text x="694" y="1050" text-anchor="end" class="pct">0%</text>
    <text x="402" y="1076" class="cardTitle">长文抽取</text>
    <text x="402" y="1096" class="cardId">long_text_extraction</text>
    <text x="402" y="1116" class="cardTask">任务 0/4</text>
    <rect x="492" y="1109" width="206" height="10" rx="5" fill="#dbe6f3"/>
    <rect x="492" y="1109" width="0" height="10" rx="5" fill="#94a3b8"/>
  </g>
  <g>
    <title>web-aigc-node-loop | 0/4 | 0% | 未启动</title>
    <rect x="728" y="1020" width="324" height="110" rx="18" fill="#f8fafc" stroke="#cbd5e1" stroke-width="1.6"/>
    <rect x="742" y="1034" width="72" height="22" rx="11" fill="#e2e8f0"/>
    <text x="778" y="1049" text-anchor="middle" class="badge">未启动</text>
    <text x="1034" y="1050" text-anchor="end" class="pct">0%</text>
    <text x="742" y="1076" class="cardTitle">循环</text>
    <text x="742" y="1096" class="cardId">loop</text>
    <text x="742" y="1116" class="cardTask">任务 0/4</text>
    <rect x="832" y="1109" width="206" height="10" rx="5" fill="#dbe6f3"/>
    <rect x="832" y="1109" width="0" height="10" rx="5" fill="#94a3b8"/>
  </g>
  <g>
    <title>web-aigc-node-mcp | 2/4 | 50% | 进行中</title>
    <rect x="1068" y="1020" width="324" height="110" rx="18" fill="#fff7ed" stroke="#f59e0b" stroke-width="1.6"/>
    <rect x="1082" y="1034" width="72" height="22" rx="11" fill="#ffedd5"/>
    <text x="1118" y="1049" text-anchor="middle" class="badge">进行中</text>
    <text x="1374" y="1050" text-anchor="end" class="pct">50%</text>
    <text x="1082" y="1076" class="cardTitle">MCP</text>
    <text x="1082" y="1096" class="cardId">mcp</text>
    <text x="1082" y="1116" class="cardTask">任务 2/4</text>
    <rect x="1172" y="1109" width="206" height="10" rx="5" fill="#dbe6f3"/>
    <rect x="1172" y="1109" width="103" height="10" rx="5" fill="#f59e0b"/>
  </g>
  <g>
    <title>web-aigc-node-message_notification | 4/4 | 100% | 已完成</title>
    <rect x="1408" y="1020" width="324" height="110" rx="18" fill="#ecfdf3" stroke="#10b981" stroke-width="1.6"/>
    <rect x="1422" y="1034" width="72" height="22" rx="11" fill="#d1fae5"/>
    <text x="1458" y="1049" text-anchor="middle" class="badge">已完成</text>
    <text x="1714" y="1050" text-anchor="end" class="pct">100%</text>
    <text x="1422" y="1076" class="cardTitle">消息通知</text>
    <text x="1422" y="1096" class="cardId">message_notification</text>
    <text x="1422" y="1116" class="cardTask">任务 4/4</text>
    <rect x="1512" y="1109" width="206" height="10" rx="5" fill="#dbe6f3"/>
    <rect x="1512" y="1109" width="206" height="10" rx="5" fill="#10b981"/>
  </g>
  <g>
    <title>web-aigc-node-ocr_recognition | 0/4 | 0% | 未启动</title>
    <rect x="1748" y="1020" width="324" height="110" rx="18" fill="#f8fafc" stroke="#cbd5e1" stroke-width="1.6"/>
    <rect x="1762" y="1034" width="72" height="22" rx="11" fill="#e2e8f0"/>
    <text x="1798" y="1049" text-anchor="middle" class="badge">未启动</text>
    <text x="2054" y="1050" text-anchor="end" class="pct">0%</text>
    <text x="1762" y="1076" class="cardTitle">OCR 识别</text>
    <text x="1762" y="1096" class="cardId">ocr_recognition</text>
    <text x="1762" y="1116" class="cardTask">任务 0/4</text>
    <rect x="1852" y="1109" width="206" height="10" rx="5" fill="#dbe6f3"/>
    <rect x="1852" y="1109" width="0" height="10" rx="5" fill="#94a3b8"/>
  </g>
  <g>
    <title>web-aigc-node-open_dashboard | 0/4 | 0% | 未启动</title>
    <rect x="48" y="1146" width="324" height="110" rx="18" fill="#f8fafc" stroke="#cbd5e1" stroke-width="1.6"/>
    <rect x="62" y="1160" width="72" height="22" rx="11" fill="#e2e8f0"/>
    <text x="98" y="1175" text-anchor="middle" class="badge">未启动</text>
    <text x="354" y="1176" text-anchor="end" class="pct">0%</text>
    <text x="62" y="1202" class="cardTitle">打开看板</text>
    <text x="62" y="1222" class="cardId">open_dashboard</text>
    <text x="62" y="1242" class="cardTask">任务 0/4</text>
    <rect x="152" y="1235" width="206" height="10" rx="5" fill="#dbe6f3"/>
    <rect x="152" y="1235" width="0" height="10" rx="5" fill="#94a3b8"/>
  </g>
  <g>
    <title>web-aigc-node-open_page | 0/4 | 0% | 未启动</title>
    <rect x="388" y="1146" width="324" height="110" rx="18" fill="#f8fafc" stroke="#cbd5e1" stroke-width="1.6"/>
    <rect x="402" y="1160" width="72" height="22" rx="11" fill="#e2e8f0"/>
    <text x="438" y="1175" text-anchor="middle" class="badge">未启动</text>
    <text x="694" y="1176" text-anchor="end" class="pct">0%</text>
    <text x="402" y="1202" class="cardTitle">打开页面</text>
    <text x="402" y="1222" class="cardId">open_page</text>
    <text x="402" y="1242" class="cardTask">任务 0/4</text>
    <rect x="492" y="1235" width="206" height="10" rx="5" fill="#dbe6f3"/>
    <rect x="492" y="1235" width="0" height="10" rx="5" fill="#94a3b8"/>
  </g>
  <g>
    <title>web-aigc-node-open_report | 0/4 | 0% | 未启动</title>
    <rect x="728" y="1146" width="324" height="110" rx="18" fill="#f8fafc" stroke="#cbd5e1" stroke-width="1.6"/>
    <rect x="742" y="1160" width="72" height="22" rx="11" fill="#e2e8f0"/>
    <text x="778" y="1175" text-anchor="middle" class="badge">未启动</text>
    <text x="1034" y="1176" text-anchor="end" class="pct">0%</text>
    <text x="742" y="1202" class="cardTitle">打开报表</text>
    <text x="742" y="1222" class="cardId">open_report</text>
    <text x="742" y="1242" class="cardTask">任务 0/4</text>
    <rect x="832" y="1235" width="206" height="10" rx="5" fill="#dbe6f3"/>
    <rect x="832" y="1235" width="0" height="10" rx="5" fill="#94a3b8"/>
  </g>
  <g>
    <title>web-aigc-node-orchestration_recognition_jump | 0/4 | 0% | 未启动</title>
    <rect x="1068" y="1146" width="324" height="110" rx="18" fill="#f8fafc" stroke="#cbd5e1" stroke-width="1.6"/>
    <rect x="1082" y="1160" width="72" height="22" rx="11" fill="#e2e8f0"/>
    <text x="1118" y="1175" text-anchor="middle" class="badge">未启动</text>
    <text x="1374" y="1176" text-anchor="end" class="pct">0%</text>
    <text x="1082" y="1202" class="cardTitle">编排识别跳转</text>
    <text x="1082" y="1222" class="cardId">orchestration_recognition_jump</text>
    <text x="1082" y="1242" class="cardTask">任务 0/4</text>
    <rect x="1172" y="1235" width="206" height="10" rx="5" fill="#dbe6f3"/>
    <rect x="1172" y="1235" width="0" height="10" rx="5" fill="#94a3b8"/>
  </g>
  <g>
    <title>web-aigc-node-param_collection | 2/4 | 50% | 进行中</title>
    <rect x="1408" y="1146" width="324" height="110" rx="18" fill="#fff7ed" stroke="#f59e0b" stroke-width="1.6"/>
    <rect x="1422" y="1160" width="72" height="22" rx="11" fill="#ffedd5"/>
    <text x="1458" y="1175" text-anchor="middle" class="badge">进行中</text>
    <text x="1714" y="1176" text-anchor="end" class="pct">50%</text>
    <text x="1422" y="1202" class="cardTitle">参数采集</text>
    <text x="1422" y="1222" class="cardId">param_collection</text>
    <text x="1422" y="1242" class="cardTask">任务 2/4</text>
    <rect x="1512" y="1235" width="206" height="10" rx="5" fill="#dbe6f3"/>
    <rect x="1512" y="1235" width="103" height="10" rx="5" fill="#f59e0b"/>
  </g>
  <g>
    <title>web-aigc-node-passthrough_api | 4/4 | 100% | 已完成</title>
    <rect x="1748" y="1146" width="324" height="110" rx="18" fill="#ecfdf3" stroke="#10b981" stroke-width="1.6"/>
    <rect x="1762" y="1160" width="72" height="22" rx="11" fill="#d1fae5"/>
    <text x="1798" y="1175" text-anchor="middle" class="badge">已完成</text>
    <text x="2054" y="1176" text-anchor="end" class="pct">100%</text>
    <text x="1762" y="1202" class="cardTitle">透传 API</text>
    <text x="1762" y="1222" class="cardId">passthrough_api</text>
    <text x="1762" y="1242" class="cardTask">任务 4/4</text>
    <rect x="1852" y="1235" width="206" height="10" rx="5" fill="#dbe6f3"/>
    <rect x="1852" y="1235" width="206" height="10" rx="5" fill="#10b981"/>
  </g>
  <g>
    <title>web-aigc-node-qa_search | 0/4 | 0% | 未启动</title>
    <rect x="48" y="1272" width="324" height="110" rx="18" fill="#f8fafc" stroke="#cbd5e1" stroke-width="1.6"/>
    <rect x="62" y="1286" width="72" height="22" rx="11" fill="#e2e8f0"/>
    <text x="98" y="1301" text-anchor="middle" class="badge">未启动</text>
    <text x="354" y="1302" text-anchor="end" class="pct">0%</text>
    <text x="62" y="1328" class="cardTitle">问答检索</text>
    <text x="62" y="1348" class="cardId">qa_search</text>
    <text x="62" y="1368" class="cardTask">任务 0/4</text>
    <rect x="152" y="1361" width="206" height="10" rx="5" fill="#dbe6f3"/>
    <rect x="152" y="1361" width="0" height="10" rx="5" fill="#94a3b8"/>
  </g>
  <g>
    <title>web-aigc-node-recommended_commands | 0/4 | 0% | 未启动</title>
    <rect x="388" y="1272" width="324" height="110" rx="18" fill="#f8fafc" stroke="#cbd5e1" stroke-width="1.6"/>
    <rect x="402" y="1286" width="72" height="22" rx="11" fill="#e2e8f0"/>
    <text x="438" y="1301" text-anchor="middle" class="badge">未启动</text>
    <text x="694" y="1302" text-anchor="end" class="pct">0%</text>
    <text x="402" y="1328" class="cardTitle">推荐指令</text>
    <text x="402" y="1348" class="cardId">recommended_commands</text>
    <text x="402" y="1368" class="cardTask">任务 0/4</text>
    <rect x="492" y="1361" width="206" height="10" rx="5" fill="#dbe6f3"/>
    <rect x="492" y="1361" width="0" height="10" rx="5" fill="#94a3b8"/>
  </g>
  <g>
    <title>web-aigc-node-robot_reply | 0/4 | 0% | 未启动</title>
    <rect x="728" y="1272" width="324" height="110" rx="18" fill="#f8fafc" stroke="#cbd5e1" stroke-width="1.6"/>
    <rect x="742" y="1286" width="72" height="22" rx="11" fill="#e2e8f0"/>
    <text x="778" y="1301" text-anchor="middle" class="badge">未启动</text>
    <text x="1034" y="1302" text-anchor="end" class="pct">0%</text>
    <text x="742" y="1328" class="cardTitle">机器人回复</text>
    <text x="742" y="1348" class="cardId">robot_reply</text>
    <text x="742" y="1368" class="cardTask">任务 0/4</text>
    <rect x="832" y="1361" width="206" height="10" rx="5" fill="#dbe6f3"/>
    <rect x="832" y="1361" width="0" height="10" rx="5" fill="#94a3b8"/>
  </g>
  <g>
    <title>web-aigc-node-selection | 4/4 | 100% | 已完成</title>
    <rect x="1068" y="1272" width="324" height="110" rx="18" fill="#ecfdf3" stroke="#10b981" stroke-width="1.6"/>
    <rect x="1082" y="1286" width="72" height="22" rx="11" fill="#d1fae5"/>
    <text x="1118" y="1301" text-anchor="middle" class="badge">已完成</text>
    <text x="1374" y="1302" text-anchor="end" class="pct">100%</text>
    <text x="1082" y="1328" class="cardTitle">选择</text>
    <text x="1082" y="1348" class="cardId">selection</text>
    <text x="1082" y="1368" class="cardTask">任务 4/4</text>
    <rect x="1172" y="1361" width="206" height="10" rx="5" fill="#dbe6f3"/>
    <rect x="1172" y="1361" width="206" height="10" rx="5" fill="#10b981"/>
  </g>
  <g>
    <title>web-aigc-node-similarity_match | 0/4 | 0% | 未启动</title>
    <rect x="1408" y="1272" width="324" height="110" rx="18" fill="#f8fafc" stroke="#cbd5e1" stroke-width="1.6"/>
    <rect x="1422" y="1286" width="72" height="22" rx="11" fill="#e2e8f0"/>
    <text x="1458" y="1301" text-anchor="middle" class="badge">未启动</text>
    <text x="1714" y="1302" text-anchor="end" class="pct">0%</text>
    <text x="1422" y="1328" class="cardTitle">相似度匹配</text>
    <text x="1422" y="1348" class="cardId">similarity_match</text>
    <text x="1422" y="1368" class="cardTask">任务 0/4</text>
    <rect x="1512" y="1361" width="206" height="10" rx="5" fill="#dbe6f3"/>
    <rect x="1512" y="1361" width="0" height="10" rx="5" fill="#94a3b8"/>
  </g>
  <g>
    <title>web-aigc-node-start | 4/4 | 100% | 已完成</title>
    <rect x="1748" y="1272" width="324" height="110" rx="18" fill="#ecfdf3" stroke="#10b981" stroke-width="1.6"/>
    <rect x="1762" y="1286" width="72" height="22" rx="11" fill="#d1fae5"/>
    <text x="1798" y="1301" text-anchor="middle" class="badge">已完成</text>
    <text x="2054" y="1302" text-anchor="end" class="pct">100%</text>
    <text x="1762" y="1328" class="cardTitle">开始</text>
    <text x="1762" y="1348" class="cardId">start</text>
    <text x="1762" y="1368" class="cardTask">任务 4/4</text>
    <rect x="1852" y="1361" width="206" height="10" rx="5" fill="#dbe6f3"/>
    <rect x="1852" y="1361" width="206" height="10" rx="5" fill="#10b981"/>
  </g>
  <g>
    <title>web-aigc-node-static_webpage_read | 0/4 | 0% | 未启动</title>
    <rect x="48" y="1398" width="324" height="110" rx="18" fill="#f8fafc" stroke="#cbd5e1" stroke-width="1.6"/>
    <rect x="62" y="1412" width="72" height="22" rx="11" fill="#e2e8f0"/>
    <text x="98" y="1427" text-anchor="middle" class="badge">未启动</text>
    <text x="354" y="1428" text-anchor="end" class="pct">0%</text>
    <text x="62" y="1454" class="cardTitle">静态网页读取</text>
    <text x="62" y="1474" class="cardId">static_webpage_read</text>
    <text x="62" y="1494" class="cardTask">任务 0/4</text>
    <rect x="152" y="1487" width="206" height="10" rx="5" fill="#dbe6f3"/>
    <rect x="152" y="1487" width="0" height="10" rx="5" fill="#94a3b8"/>
  </g>
  <g>
    <title>web-aigc-node-transaction_flow | 0/4 | 0% | 未启动</title>
    <rect x="388" y="1398" width="324" height="110" rx="18" fill="#f8fafc" stroke="#cbd5e1" stroke-width="1.6"/>
    <rect x="402" y="1412" width="72" height="22" rx="11" fill="#e2e8f0"/>
    <text x="438" y="1427" text-anchor="middle" class="badge">未启动</text>
    <text x="694" y="1428" text-anchor="end" class="pct">0%</text>
    <text x="402" y="1454" class="cardTitle">事务流</text>
    <text x="402" y="1474" class="cardId">transaction_flow</text>
    <text x="402" y="1494" class="cardTask">任务 0/4</text>
    <rect x="492" y="1487" width="206" height="10" rx="5" fill="#dbe6f3"/>
    <rect x="492" y="1487" width="0" height="10" rx="5" fill="#94a3b8"/>
  </g>
  <g>
    <title>web-aigc-node-user_input | 4/4 | 100% | 已完成</title>
    <rect x="728" y="1398" width="324" height="110" rx="18" fill="#ecfdf3" stroke="#10b981" stroke-width="1.6"/>
    <rect x="742" y="1412" width="72" height="22" rx="11" fill="#d1fae5"/>
    <text x="778" y="1427" text-anchor="middle" class="badge">已完成</text>
    <text x="1034" y="1428" text-anchor="end" class="pct">100%</text>
    <text x="742" y="1454" class="cardTitle">用户输入</text>
    <text x="742" y="1474" class="cardId">user_input</text>
    <text x="742" y="1494" class="cardTask">任务 4/4</text>
    <rect x="832" y="1487" width="206" height="10" rx="5" fill="#dbe6f3"/>
    <rect x="832" y="1487" width="206" height="10" rx="5" fill="#10b981"/>
  </g>
  <g>
    <title>web-aigc-node-variable_assignment | 0/4 | 0% | 未启动</title>
    <rect x="1068" y="1398" width="324" height="110" rx="18" fill="#f8fafc" stroke="#cbd5e1" stroke-width="1.6"/>
    <rect x="1082" y="1412" width="72" height="22" rx="11" fill="#e2e8f0"/>
    <text x="1118" y="1427" text-anchor="middle" class="badge">未启动</text>
    <text x="1374" y="1428" text-anchor="end" class="pct">0%</text>
    <text x="1082" y="1454" class="cardTitle">变量赋值</text>
    <text x="1082" y="1474" class="cardId">variable_assignment</text>
    <text x="1082" y="1494" class="cardTask">任务 0/4</text>
    <rect x="1172" y="1487" width="206" height="10" rx="5" fill="#dbe6f3"/>
    <rect x="1172" y="1487" width="0" height="10" rx="5" fill="#94a3b8"/>
  </g>
  <g>
    <title>web-aigc-node-vector_delete | 0/4 | 0% | 未启动</title>
    <rect x="1408" y="1398" width="324" height="110" rx="18" fill="#f8fafc" stroke="#cbd5e1" stroke-width="1.6"/>
    <rect x="1422" y="1412" width="72" height="22" rx="11" fill="#e2e8f0"/>
    <text x="1458" y="1427" text-anchor="middle" class="badge">未启动</text>
    <text x="1714" y="1428" text-anchor="end" class="pct">0%</text>
    <text x="1422" y="1454" class="cardTitle">向量删除</text>
    <text x="1422" y="1474" class="cardId">vector_delete</text>
    <text x="1422" y="1494" class="cardTask">任务 0/4</text>
    <rect x="1512" y="1487" width="206" height="10" rx="5" fill="#dbe6f3"/>
    <rect x="1512" y="1487" width="0" height="10" rx="5" fill="#94a3b8"/>
  </g>
  <g>
    <title>web-aigc-node-vector_insert | 4/4 | 100% | 已完成</title>
    <rect x="1748" y="1398" width="324" height="110" rx="18" fill="#ecfdf3" stroke="#10b981" stroke-width="1.6"/>
    <rect x="1762" y="1412" width="72" height="22" rx="11" fill="#d1fae5"/>
    <text x="1798" y="1427" text-anchor="middle" class="badge">已完成</text>
    <text x="2054" y="1428" text-anchor="end" class="pct">100%</text>
    <text x="1762" y="1454" class="cardTitle">向量写入</text>
    <text x="1762" y="1474" class="cardId">vector_insert</text>
    <text x="1762" y="1494" class="cardTask">任务 4/4</text>
    <rect x="1852" y="1487" width="206" height="10" rx="5" fill="#dbe6f3"/>
    <rect x="1852" y="1487" width="206" height="10" rx="5" fill="#10b981"/>
  </g>
  <g>
    <title>web-aigc-node-vector_query | 4/4 | 100% | 已完成</title>
    <rect x="48" y="1524" width="324" height="110" rx="18" fill="#ecfdf3" stroke="#10b981" stroke-width="1.6"/>
    <rect x="62" y="1538" width="72" height="22" rx="11" fill="#d1fae5"/>
    <text x="98" y="1553" text-anchor="middle" class="badge">已完成</text>
    <text x="354" y="1554" text-anchor="end" class="pct">100%</text>
    <text x="62" y="1580" class="cardTitle">向量查询</text>
    <text x="62" y="1600" class="cardId">vector_query</text>
    <text x="62" y="1620" class="cardTask">任务 4/4</text>
    <rect x="152" y="1613" width="206" height="10" rx="5" fill="#dbe6f3"/>
    <rect x="152" y="1613" width="206" height="10" rx="5" fill="#10b981"/>
  </g>
  <g>
    <title>web-aigc-node-vector_update | 0/4 | 0% | 未启动</title>
    <rect x="388" y="1524" width="324" height="110" rx="18" fill="#f8fafc" stroke="#cbd5e1" stroke-width="1.6"/>
    <rect x="402" y="1538" width="72" height="22" rx="11" fill="#e2e8f0"/>
    <text x="438" y="1553" text-anchor="middle" class="badge">未启动</text>
    <text x="694" y="1554" text-anchor="end" class="pct">0%</text>
    <text x="402" y="1580" class="cardTitle">向量更新</text>
    <text x="402" y="1600" class="cardId">vector_update</text>
    <text x="402" y="1620" class="cardTask">任务 0/4</text>
    <rect x="492" y="1613" width="206" height="10" rx="5" fill="#dbe6f3"/>
    <rect x="492" y="1613" width="0" height="10" rx="5" fill="#94a3b8"/>
  </g>
  <g>
    <title>web-aigc-node-web_qa | 0/4 | 0% | 未启动</title>
    <rect x="728" y="1524" width="324" height="110" rx="18" fill="#f8fafc" stroke="#cbd5e1" stroke-width="1.6"/>
    <rect x="742" y="1538" width="72" height="22" rx="11" fill="#e2e8f0"/>
    <text x="778" y="1553" text-anchor="middle" class="badge">未启动</text>
    <text x="1034" y="1554" text-anchor="end" class="pct">0%</text>
    <text x="742" y="1580" class="cardTitle">网页问答</text>
    <text x="742" y="1600" class="cardId">web_qa</text>
    <text x="742" y="1620" class="cardTask">任务 0/4</text>
    <rect x="832" y="1613" width="206" height="10" rx="5" fill="#dbe6f3"/>
    <rect x="832" y="1613" width="0" height="10" rx="5" fill="#94a3b8"/>
  </g>
  <g>
    <title>web-aigc-node-web_search | 0/4 | 0% | 未启动</title>
    <rect x="1068" y="1524" width="324" height="110" rx="18" fill="#f8fafc" stroke="#cbd5e1" stroke-width="1.6"/>
    <rect x="1082" y="1538" width="72" height="22" rx="11" fill="#e2e8f0"/>
    <text x="1118" y="1553" text-anchor="middle" class="badge">未启动</text>
    <text x="1374" y="1554" text-anchor="end" class="pct">0%</text>
    <text x="1082" y="1580" class="cardTitle">网页搜索</text>
    <text x="1082" y="1600" class="cardId">web_search</text>
    <text x="1082" y="1620" class="cardTask">任务 0/4</text>
    <rect x="1172" y="1613" width="206" height="10" rx="5" fill="#dbe6f3"/>
    <rect x="1172" y="1613" width="0" height="10" rx="5" fill="#94a3b8"/>
  </g>
  <text x="2072" y="1694" text-anchor="end" class="meta">生成时间：2026-04-22 | 数据来源：.kiro/specs/web-aigc-*/tasks.md</text>
</svg>
